<?xml version="1.0" encoding="utf-8"?>
<!-- Generator: Adobe Illustrator 25.2.3, SVG Export Plug-In . SVG Version: 6.00 Build 0)  -->
<svg version="1.1" id="Слой_1" xmlns="http://www.w3.org/2000/svg" xmlns:xlink="http://www.w3.org/1999/xlink" x="0px" y="0px"
	 viewBox="0 0 1211.8 303.2" style="enable-background:new 0 0 1211.8 303.2;" xml:space="preserve">
<style type="text/css">
	.st0{fill:#FFFFFF;}
</style>
<path class="st0" d="M877.1,167.1c-1.5,11.7-6.4,22.8-13.9,31.8c-8,9.4-18.1,16.8-29.5,21.5c-12,5.1-25.4,7.6-40.2,7.6
	c-16.8,0-31.5-3.1-44.3-9.3c-12.8-6.2-22.7-14.8-29.9-26c-7.2-11.2-10.7-24-10.7-38.5c0-14.7,3.6-27.5,10.7-38.6
	c7.2-11.1,17.1-19.8,29.9-26.1c12.8-6.2,27.5-9.4,44.3-9.4c14.8,0,28.2,2.6,40.2,7.8c11.4,4.7,21.5,12.1,29.5,21.5
	c7.6,9.1,12.5,20.2,13.9,32h-41.2c-2.1-9.5-7-16.9-14.7-22.1s-16.9-7.8-27.8-7.8c-8.7,0-16.3,1.7-22.8,5.1
	c-6.3,3.2-11.6,8.3-14.9,14.6c-3.5,6.3-5.2,14-5.2,23.1c0,8.9,1.7,16.5,5.2,22.8c3.4,6.3,8.6,11.3,14.9,14.6
	c6.5,3.4,14.1,5.1,22.8,5.1c11,0,20.4-2.7,28-8.1c7.4-5,12.6-12.7,14.4-21.5L877.1,167.1z M919.8,67.8c-7.4,0-13.5-1.9-18.1-5.8
	c-4.6-3.8-7.2-9.5-7-15.4c0-6.6,2.3-11.8,7-15.7c4.7-3.9,10.7-5.8,18.1-5.8c7.6,0,13.6,1.9,18.3,5.8c4.6,3.9,6.9,9.1,6.9,15.7
	c0,6.4-2.3,11.6-6.9,15.4C933.4,65.9,927.4,67.8,919.8,67.8z M899.3,82.4l20.5,3.9l20.7-3.9v141.9h-41.2L899.3,82.4z M1111.1,154.2
	c-2.7,14.8-7.5,27.8-14.4,38.9c-6.5,10.7-15.6,19.5-26.4,25.8c-10.9,6.1-23.2,9.3-35.7,9.1c-13.7,0-25.8-3.1-36.3-9.3
	c-10.5-6.1-19-15.1-24.6-25.9c-5.8-11.1-8.8-24-8.8-38.6c0-14.8,2.9-27.8,8.8-38.9c5.6-10.8,14.1-19.8,24.6-25.9
	c10.5-6.2,22.6-9.3,36.3-9.3c12.5-0.2,24.8,3,35.7,9.1c10.8,6.3,20,15.1,26.6,25.8C1103.8,126.2,1108.6,139.2,1111.1,154.2
	L1111.1,154.2z M1006.7,154.2c-0.2,7.6,1.6,15,5.1,21.7c3.2,6.1,8,11.2,13.9,14.7c6.2,3.6,13.3,5.5,20.5,5.3
	c7.6,0,15.1-1.8,21.8-5.3c7-3.6,13.1-8.6,18.2-14.7c5.4-6.4,9.6-13.8,12.3-21.7c-2.8-7.9-7-15.3-12.3-21.9
	c-5-6.1-11.2-11.1-18.2-14.8c-6.7-3.5-14.2-5.3-21.8-5.3c-7.2-0.1-14.3,1.7-20.5,5.3c-5.9,3.5-10.8,8.7-13.9,14.8
	C1008.3,139.1,1006.5,146.6,1006.7,154.2L1006.7,154.2z M1100.2,224.3l-5.9-51.3l6.7-18.8l-6.7-18.5l5.9-51.8h42.7l-8.1,70.4
	l8.1,70.1L1100.2,224.3z M1170.6,34.2h41.2v190.1h-41.2V34.2z"/>
<path class="st0" d="M453.5,116.8c-6.2-3.6-13.3-5.4-20.5-5.3c-7.7,0-15.2,1.8-22,5.3c-7,3.6-13.2,8.7-18.1,14.8
	c-5.3,6.5-9.4,13.9-12.2,21.9c2.8,7.9,6.9,15.2,12.2,21.7c5,6.1,11.2,11.1,18.1,14.7c6.8,3.5,14.3,5.3,22,5.3
	c7.2,0.1,14.3-1.7,20.5-5.3c5.9-3.5,10.8-8.6,14-14.7c3.5-6.7,5.2-14.2,5.1-21.7c0.1-7.6-1.6-15.1-5.1-21.9
	C464.3,125.4,459.4,120.3,453.5,116.8z"/>
<path class="st0" d="M531,152.9c0-14.7,3.6-27.5,10.7-38.5c7.3-11.1,17.5-20.1,29.5-25.8c12.5-6.2,26.7-9.3,42.7-9.2
	c16.3,0,30.3,3.6,42,10.7c10.5,6.5,19.1,15.6,25,26.5L907.5,0.5H171.6L0.9,302.8h316.6l222.7-114.1C534.1,178.2,531,166.3,531,152.9
	L531,152.9z M305.5,197.9c-7.5,9.3-18,16.5-31.5,21.6c-13.5,5.1-29.3,7.6-47.4,7.6c-18.4,0-34.6-2.7-48.6-8s-25-12.8-33.1-22.5
	c-8-9.5-12.6-21.3-13.1-33.7h42.4c1,6.2,3.9,11.9,8.3,16.4c4.5,4.7,10.6,8.3,18.3,10.9c8.6,2.7,17.5,4,26.5,3.8
	c14.7,0,26.2-2.1,34.7-6.3c8.5-4.2,12.7-10.1,12.7-17.6c0.2-5.5-2.6-10.8-7.3-13.7c-4.9-3.2-13.9-5.5-27-7l-37.3-4.2
	c-24-2.6-41.4-8.3-52.2-16.9c-10.8-8.6-16.2-20.7-16.2-36.2c0-12.2,3.6-22.5,10.7-31.1s17.2-15.1,30.3-19.6
	c13-4.5,28.3-6.8,45.9-6.8c17.1,0,32.3,2.5,45.7,7.5c13.3,5,23.9,12,31.9,21C307,71.9,311.5,83,312,94.7h-42.5
	c-0.8-5.4-3.4-10.4-7.3-14.2c-4-4-9.6-7.1-16.7-9.4c-8.1-2.4-16.5-3.5-24.9-3.3c-13.3,0-23.9,2-31.8,5.9c-7.9,4-11.8,9.5-11.9,16.8
	c-0.2,5.3,2.5,10.3,7,13c4.7,3.1,12.9,5.3,24.8,6.8l38.8,4.7c17.1,1.8,30.7,4.7,40.8,8.8c10.1,4,17.4,9.4,21.7,16.2
	c4.4,6.8,6.5,15.3,6.5,25.7C316.9,177.3,312.9,188.8,305.5,197.9L305.5,197.9z M505.3,192c-5.6,10.8-14.1,19.8-24.5,26
	c-10.5,6.2-22.6,9.3-36.4,9.2c-13.2,0-25-3-35.4-9.1c-10.7-6.3-19.7-15.2-26.3-25.8c-0.2-0.3-0.3-0.6-0.5-0.8v72.8h-41.3V83.1h41.2
	v31.8c0.1-0.2,0.2-0.4,0.4-0.6c6.5-10.7,15.6-19.5,26.4-25.8c10.8-6.1,23-9.3,35.4-9.1c13.8,0,26,3.1,36.4,9.2
	c10.4,6.2,19,15.2,24.6,25.9c5.9,11.1,8.9,24.1,8.9,38.9C514.2,168.1,511.2,180.9,505.3,192L505.3,192z"/>
<path class="st0" d="M576.8,169.9l7.2-3.7h-8.6C575.8,167.5,576.2,168.7,576.8,169.9z M634.4,114.4c-6.2-3.2-13.2-4.9-20.2-4.7
	c-8.4,0-15.7,1.7-21.8,5.1c-6,3.2-11,8.1-14.3,14.1c-1.7,3.1-3,6.5-3.8,10h63.2l12.9-6.6c-0.6-1.5-1.4-3-2.2-4.5
	C644.9,122.1,640.1,117.5,634.4,114.4L634.4,114.4z"/>
<path class="st0" d="M627.3,196.9c-11.7,0-21.6-1.8-29.9-5.4c-9.7-3.9-17.4-11.5-21.5-21.1l-36.6,18.8c0.7,1.2,1.4,2.4,2.2,3.6
	c7.5,11.2,17.8,19.9,30.8,26s27.9,9.2,44.6,9.3c13.2,0.1,26.3-1.8,38.9-5.5c11.5-3.3,22.4-8.6,32.2-15.4v-27.6
	c-8.9,5.8-18.6,10.2-28.9,13C648.8,195.4,638,196.9,627.3,196.9L627.3,196.9z M680,117l-30.5,15.7c1,2.3,1.8,4.6,2.4,7h-16
	l-53.5,27.4h109.3c0-17.6-3.2-32.9-9.5-45.9C681.5,119.7,680.8,118.4,680,117L680,117z"/>
</svg>
