<svg xmlns="http://www.w3.org/2000/svg" id="Слой_1" data-name="Слой 1" viewBox="0 0 905.31 195.67"><defs><style>.cls-3{fill:#1d1d1b}</style></defs><path d="M14.78 195.17H.86L110.86.5h83.92l-180 194.67z" style="stroke:#1d1d1b;stroke-miterlimit:10"/><g style="isolation:isolate"><path d="M343.06 39.76c-2.39-8.15-14.43-17.45-32.77-17.45-17.41 0-35.94 7.23-35.94 21.12 0 23 85 20.57 85 63.36 0 27-25 37.79-50.39 37.79-27.6 0-46.31-16.11-50.2-34.82h14.82c4.63 15.56 21.86 21.86 35 21.86 22.6 0 36.87-9.45 36.87-22.05 0-33.53-85-26.12-85-65.58 0-25.38 27.6-34.64 50-34.64 28.15 0 45.57 16.85 47.24 30.38ZM395.5 188.15h-13V49.21h13v6.67c0 5.55-2.41 12.22-4.26 17.6l2.6.74c1.85-5.19 3.33-12.6 7.22-16.49 7-7 16.67-11.3 29.27-11.3 27.79 0 45.76 20.93 45.76 48.53s-18 49.84-45.76 49.84c-12.6 0-22.42-4.45-29.27-12-3.89-4.08-5.37-11.49-7-16.68l-2.78.93c1.85 5.19 4.26 12 4.26 17.6Zm0-93.19c0 20.38 11.86 37.43 34.83 37.43 22.79 0 32.79-17.05 32.79-37.43s-10-36.12-32.79-36.12c-22.97 0-34.83 15.75-34.83 36.12ZM489.06 94.96c0-27.6 19.27-48.53 46.32-48.53 28 0 45.38 22 45.2 46.87 0 1.85 0 6.3-.19 7.78h-78c0 13 11.49 31.31 35.57 31.31 15.56 0 25-9.27 27.23-17.05h13.34c-2.59 9.64-14.45 29.46-39.64 29.46-32.42 0-49.83-22.23-49.83-49.84Zm77.44-6.29c0-15.94-11.67-29.83-30.94-29.83-19.64 0-33.16 15.38-33.16 29.83ZM643.74 46.24c27.79.19 39.83 20 42.24 29.46h-13.16c-2.22-7.6-12.22-16.86-28.9-17.05-23.34 0-35.38 15.75-35.38 36.13 0 20.56 14.08 37.42 37.61 37.42 16.85 0 25-9.26 27.23-16.86h13.15c-2.41 9.45-13 29.27-40.76 29.46-28.52-.19-50.2-22.42-50.2-50 0-27.44 20.01-48.37 48.17-48.56ZM706.16 12.15h14.82v14.83h-14.82Zm1.12 37.06h13v92.63h-13ZM788.23 144.8c-28 0-47.8-22.23-47.8-49.84s19.83-48.53 47.8-48.53c12.6 0 22.79 4.26 30 11.67 3.89 3.89 5.56 11.3 7.41 16.49l2.59-.93c-1.85-5.19-4.63-11.86-5-17.41l-.37-7h13v92.63h-13l.37-7.6c.37-5.56 3-12.41 4.82-17.6l-2.59-.93c-1.86 5.19-3.34 12.6-7 16.68-7.26 7.74-17.4 12.37-30.23 12.37Zm0-12.41c22 0 33.53-18.34 34.64-37.43 0-22.6-12.6-36.12-34.64-36.12-23 0-34.83 15.75-34.83 36.12s11.86 37.43 34.83 37.43ZM869.18 7.52h13.15v111.9c0 7.41 2 10 9.82 10h13.16v12.42h-10.75c-18.52 0-25.38-6.12-25.38-22.42Z" class="cls-3"/></g></svg>