<svg id="Слой_1" fill="white" data-name="Слой 1" xmlns="http://www.w3.org/2000/svg" viewBox="0 0 1105 169"><path d="M372,542.24l31.6-75a84.23,84.23,0,0,0-78.6-3,32,32,0,1,1-38.4,37.2,84,84,0,0,0-9.6,39,85.74,85.74,0,0,0,2,18.4l25.1-10.8,21.5,49.7,51.6-22.2,12.2,28.3-45.2,19.3a82.83,82.83,0,0,0,17.4,1.8,84.46,84.46,0,0,0,84.5-84.5,65.07,65.07,0,0,0-.4-7.7Z" transform="translate(-276.98 -455.94)"/><path d="M625.23,548.36c-3.55,21.29-20.87,35.91-57.77,35.91-41.58,0-58.47-18.6-58.47-44.28s16.89-44.28,58.47-44.28c36.9,0,54.22,14.61,57.77,35.9h-9.94c-3.41-15.75-17.74-26.68-47.83-26.68-35.05,0-48.68,14.9-48.68,35.06s13.63,35,48.68,35c30.09,0,44.42-10.93,47.83-26.68Z" transform="translate(-276.98 -455.94)"/><path d="M656.74,582.56H647V497.41h9.79v28.95c5.82-17.46,21.71-30.65,51.94-30.65v9.5c-37,0-51.94,19.59-51.94,41.73Z" transform="translate(-276.98 -455.94)"/><path d="M837.27,540a24.75,24.75,0,0,1-.15,3.4H730.4c1,19,15.18,32.93,48.39,32.93,25.27,0,39.46-8,45.28-20.15h10.5c-6.24,17-23.7,28.1-55.78,28.1-41.58,0-58.47-18.6-58.47-44.28s16.89-44.43,58.47-44.43S837.27,514.3,837.27,540ZM730.4,536.44h96.79c-1-18.88-15-32.79-48.4-32.79C745.58,503.65,731.39,517.56,730.4,536.44Z" transform="translate(-276.98 -455.94)"/><path d="M961.45,520V497.41h9.79v85.15h-9.79V560c-7.09,14.76-23.42,24.27-51.52,24.27-39.17,0-55.63-18.6-55.63-44.28s16.46-44.28,55.63-44.28C938,495.71,954.36,505.21,961.45,520Zm0,20c0-20.16-13.62-35.06-48.68-35.06s-48.68,14.9-48.68,35.06,13.63,35,48.68,35S961.45,560.14,961.45,540Z" transform="translate(-276.98 -455.94)"/><path d="M1100,519.69V497.41h9.8V567c0,28.67-10.51,46.84-63.87,46.84a157.88,157.88,0,0,1-46.83-7.1v-8.94c13.34,4.11,27.95,7.38,45,7.38,47.26,0,55.91-14.34,55.91-38.18v-8c-7.09,14.62-23.41,24-51.51,24-39.18,0-55.64-18.31-55.64-43.57s16.46-43.71,55.64-43.71C1076.56,495.71,1092.88,505.07,1100,519.69Zm0,20c0-20-13.62-34.77-48.68-34.77s-48.68,14.76-48.68,34.77,13.63,34.77,48.68,34.77S1100,559.71,1100,539.7Z" transform="translate(-276.98 -455.94)"/><path d="M1248.29,540c0,25.68-16.89,44.28-58.47,44.28s-58.48-18.6-58.48-44.28,16.89-44.28,58.48-44.28S1248.29,514.3,1248.29,540Zm-9.8,0c0-20.16-13.62-35.06-48.67-35.06s-48.68,14.9-48.68,35.06,13.62,35,48.68,35S1238.49,560.14,1238.49,540Z" transform="translate(-276.98 -455.94)"/><path d="M1382,540c0,25.68-16.89,44.28-58.47,44.28S1265,565.67,1265,540s16.89-44.28,58.47-44.28S1382,514.3,1382,540Zm-9.79,0c0-20.16-13.63-35.06-48.68-35.06s-48.68,14.9-48.68,35.06,13.63,35,48.68,35S1372.19,560.14,1372.19,540Z" transform="translate(-276.98 -455.94)"/></svg>