<svg id="Слой_1" data-name="Слой 1" xmlns="http://www.w3.org/2000/svg" viewBox="0 0 365.8 169" fill="white"><path d="M1007.12,471c0,3.8-2.3,6.5-7.8,6.5s-7.7-2.7-7.7-6.5c0-4,2.3-6.7,7.7-6.7S1007.12,467,1007.12,471Zm-12.7,110.5v-85.1h9.8v85.2h-9.8Z" transform="translate(-776.82 -455.99)"/><path d="M1132.82,519V468h9.8v113.6h-9.8V559c-7.1,14.8-23.4,24.3-51.5,24.3-39.2,0-55.6-18.6-55.6-44.3s16.5-44.3,55.6-44.3C1109.42,494.69,1125.72,504.19,1132.82,519Zm0,20c0-20.2-13.6-35.1-48.7-35.1s-48.6,14.9-48.6,35.1,13.6,35,48.7,35,48.6-14.9,48.6-35Z" transform="translate(-776.82 -455.99)"/><path d="M871.82,542.29l31.6-75a84.23,84.23,0,0,0-78.6-3,32,32,0,1,1-38.4,37.2,84,84,0,0,0-9.6,39,85.74,85.74,0,0,0,2,18.4l25.1-10.8,21.4,49.7,51.6-22.2,12.2,28.3-45.2,19.3a82.83,82.83,0,0,0,17.4,1.8,84.46,84.46,0,0,0,84.5-84.5,65.07,65.07,0,0,0-.4-7.7Z" transform="translate(-776.82 -455.99)"/></svg>